<?xml version="1.0" encoding="UTF-8"?>
<svg xmlns="http://www.w3.org/2000/svg" xmlns:xlink="http://www.w3.org/1999/xlink" width="375pt" height="374.999991pt" viewBox="0 0 375 374.999991" version="1.2">
<g id="surface1">
<path style=" stroke:none;fill-rule:nonzero;fill:rgb(10.198975%,11.759949%,34.118652%);fill-opacity:1;" d="M 223.148438 34.90625 C 109.027344 9.578125 9.578125 109.027344 34.90625 223.148438 C 47.792969 281.226562 93.40625 326.828125 151.484375 339.726562 C 265.605469 365.050781 365.050781 265.605469 339.71875 151.484375 C 326.828125 93.40625 281.226562 47.792969 223.148438 34.90625 Z M 188.703125 287.648438 C 132.449219 288.410156 86.214844 242.175781 86.976562 185.921875 C 87.710938 131.613281 131.601562 87.71875 185.917969 86.976562 C 186.683594 86.960938 187.316406 87.59375 187.316406 88.363281 C 187.316406 143.007812 231.617188 187.308594 286.261719 187.308594 C 287.03125 187.308594 287.660156 187.941406 287.648438 188.707031 C 286.90625 243.023438 243.019531 286.914062 188.703125 287.648438 Z M 188.703125 287.648438 "/>
</g>
</svg>
